# xmcd
#
# Track frame offsets: 
#        150
#        9504
#        22604
#        34676
#        45901
#        57915
#        69229
#        80472
#        91413
#        102743
#        113063
#        126599
#        137249
#        147633
#        159011
#        170524
#        182176
#        193887
#        204342
#        216636
#        229018
#
# Disc length: 3191 seconds
#
# Revision: 0
# Processed by: cddbd v1.5.2PL0 Copyright (c) Steve Scherf et al.
# Submitted via: ExactAudioCopy v1.0b3
#
DISCID=270c7515
DTITLE=Sonny James - 4 Classic Albums Plus Singles 1952-62_CD1
DYEAR=2015
DGENRE=Country
TTITLE0=Can't Get Over Missing You
TTITLE1=Cold, Cold Heart 
TTITLE2=Only One Heart To Give 
TTITLE3=I Got The Feekling
TTITLE4=Only A Shadow Between
TTITLE5='Til The Last Leaf Shall Fall 
TTITLE6=I Wish I Knew
TTITLE7=Forgive Me
TTITLE8=I'll Always Wonder (But I'll Never Know)
TTITLE9=Lonesome
TTITLE10=My God And I
TTITLE11=May God Be With You
TTITLE12=Short Cut
TTITLE13=That's Me Without You
TTITLE14=Somebody Else's Heartache
TTITLE15=Poor Boy Rich Lovin'
TTITLE16=My Greatest Thrill
TTITLE17=That's How I Need You
TTITLE18=The Table Next To Mine
TTITLE19=She Done Give Her Heart To Me
TTITLE20=Ocean Of Tears (I've Shed For You)
EXTD=
EXTT0=
EXTT1=
EXTT2=
EXTT3=
EXTT4=
EXTT5=
EXTT6=
EXTT7=
EXTT8=
EXTT9=
EXTT10=
EXTT11=
EXTT12=
EXTT13=
EXTT14=
EXTT15=
EXTT16=
EXTT17=
EXTT18=
EXTT19=
EXTT20=
PLAYORDER=
